# xmcd CD database file
#
# Track frame offsets:
#	150
#	20900
#	48001
#	76255
#	99012
#	120044
#	145283
#	165558
#	185930
#	206567
#	218473
#	245065
#	253329
#
# Disc length: 3718 seconds
#
# Revision: 0
# Processed by: cddbd v1.5.2PL0 Copyright (c) Steve Scherf et al.
# Submitted via: CDex 1.70beta2
#
DISCID=ad0e840d
DTITLE=Various Artist - After Midnight [CD2)
DYEAR=2000
DGENRE=Jazz
TTITLE0=Larry Coryell - This Love Of Ours
TTITLE1=Donald Harrison - Too Fast
TTITLE2=Jim Hall - All Across The City
TTITLE3=Bill O' Connell - Good Enough
TTITLE4=Thus Spoke Z - Nightshade
TTITLE5=Steve Laury - Lullaby For Laura
TTITLE6=Ernie Watts With Gilberto Gill - From Japan
TTITLE7=Duke Jones - No Ordinary Love
TTITLE8=Flora Purim - Waiting For Angela
TTITLE9=Kenia and Romero LuBambo - Ballad
TTITLE10=Charles Fambrough - Alycia/Andrea
TTITLE11=Jack Wilkins - My Foolish Heart
TTITLE12=Larry Coryell - Angel On Sunset
EXTD=YEAR: 2000
EXTT0=
EXTT1=
EXTT2=
EXTT3=
EXTT4=
EXTT5=
EXTT6=
EXTT7=
EXTT8=
EXTT9=
EXTT10=
EXTT11=
EXTT12=
PLAYORDER=
